<?xml version="1.0" standalone="no"?>
<!DOCTYPE svg PUBLIC "-//W3C//DTD SVG 20010904//EN"
 "http://www.w3.org/TR/2001/REC-SVG-20010904/DTD/svg10.dtd">
<svg version="1.0" xmlns="http://www.w3.org/2000/svg"
 width="260.000000pt" height="260.000000pt" viewBox="0 0 260.000000 260.000000"
 preserveAspectRatio="xMidYMid meet">
<metadata>
Created by potrace 1.14, written by Peter Selinger 2001-2017
</metadata>
<g transform="translate(0.000000,260.000000) scale(0.100000,-0.100000)"
fill="#000000" stroke="none">
<path d="M1152 2205 c-128 -30 -226 -95 -323 -212 -8 -10 -35 -55 -60 -99 -24
-43 -48 -87 -54 -96 -33 -56 -151 -264 -154 -272 -2 -6 -8 -15 -13 -21 -10
-12 -535 -932 -541 -949 -3 -8 84 -11 329 -10 184 0 334 -1 334 -2 0 -1 -20
-36 -45 -78 l-45 -76 940 0 c887 0 941 1 947 17 4 10 21 42 40 71 18 29 33 57
33 62 0 6 -334 10 -927 10 -509 0 -928 2 -930 4 -3 2 14 34 36 71 23 37 41 69
41 71 0 2 20 38 45 80 25 41 45 77 45 78 0 2 54 96 120 210 65 114 122 216
125 227 4 10 11 19 16 19 5 0 9 4 9 9 0 14 220 395 234 406 8 6 108 10 260 10
228 -1 246 0 241 16 -9 27 -118 213 -150 255 -100 131 -242 203 -410 209 -50
2 -114 -3 -143 -10z"/>
<path d="M1560 1278 c-30 -51 -60 -102 -66 -113 -6 -12 -39 -69 -73 -128 -34
-58 -60 -110 -57 -115 6 -9 951 -10 960 -1 4 4 -17 46 -45 95 -28 49 -60 105
-71 124 -11 19 -45 79 -76 133 l-56 97 -231 0 -231 0 -54 -92z"/>
</g>
</svg>
